<mxfile modified="2022-05-02T01:57:35.452Z" host="app.diagrams.net" agent="5.0 (Windows NT 10.0; Win64; x64) AppleWebKit/537.36 (KHTML, like Gecko) Chrome/100.0.4896.127 Safari/537.36 Edg/100.0.1185.50" etag="PCnBmpHeNCm-pxKkWQ30" compressed="false" version="17.5.0" type="google">
  <diagram id="yNN_HRqVokFg5lgFGNlZ" name="System Context/Constraints/Agreements/Principles/Digital Standards">
    <mxGraphModel grid="1" page="1" gridSize="10" guides="1" tooltips="1" connect="1" arrows="1" fold="1" pageScale="1" pageWidth="827" pageHeight="1169" math="0" shadow="0">
      <root>
        <mxCell id="SS3VGFc2r9QsdcYSXJZ9-0" />
        <mxCell id="SS3VGFc2r9QsdcYSXJZ9-1" value="Diagram" style="" parent="SS3VGFc2r9QsdcYSXJZ9-0" />
        <mxCell id="uP6PbB_eLCcG2kmAAAx3-1" value="Flexible" style="rounded=0;whiteSpace=wrap;html=1;shadow=0;glass=0;comic=0;fontSize=12;align=center;recursiveResize=0;container=1;collapsible=0;overflow=fill;fillColor=#f5f5f5;strokeColor=#000000;fontColor=#000000;" vertex="1" parent="SS3VGFc2r9QsdcYSXJZ9-1">
          <mxGeometry x="120" y="330" width="80" height="30" as="geometry" />
        </mxCell>
        <mxCell id="uP6PbB_eLCcG2kmAAAx3-2" value="User Centric" style="rounded=0;whiteSpace=wrap;html=1;shadow=0;glass=0;comic=0;fontSize=12;align=center;recursiveResize=0;container=1;collapsible=0;overflow=fill;fillColor=#f5f5f5;strokeColor=#000000;fontColor=#000000;" vertex="1" parent="SS3VGFc2r9QsdcYSXJZ9-1">
          <mxGeometry x="120" y="253" width="80" height="27" as="geometry" />
        </mxCell>
        <mxCell id="uP6PbB_eLCcG2kmAAAx3-3" value="Open and Transparent" style="rounded=0;whiteSpace=wrap;html=1;shadow=0;glass=0;comic=0;fontSize=12;align=center;recursiveResize=0;container=1;collapsible=0;overflow=fill;fillColor=#f5f5f5;strokeColor=#000000;fontColor=#000000;" vertex="1" parent="SS3VGFc2r9QsdcYSXJZ9-1">
          <mxGeometry x="120" y="290" width="80" height="30" as="geometry" />
        </mxCell>
        <mxCell id="uP6PbB_eLCcG2kmAAAx3-4" value="Vendor Independent" style="rounded=0;whiteSpace=wrap;html=1;shadow=0;glass=0;comic=0;fontSize=12;align=center;recursiveResize=0;container=1;collapsible=0;overflow=fill;fillColor=#f5f5f5;strokeColor=#000000;fontColor=#000000;" vertex="1" parent="SS3VGFc2r9QsdcYSXJZ9-1">
          <mxGeometry x="120" y="370" width="80" height="30" as="geometry" />
        </mxCell>
        <mxCell id="uP6PbB_eLCcG2kmAAAx3-6" value="Pragmatic" style="rounded=0;whiteSpace=wrap;html=1;shadow=0;glass=0;comic=0;fontSize=12;align=center;recursiveResize=0;container=1;collapsible=0;overflow=fill;fillColor=#f5f5f5;strokeColor=#000000;fontColor=#000000;" vertex="1" parent="SS3VGFc2r9QsdcYSXJZ9-1">
          <mxGeometry x="120" y="410" width="80" height="30" as="geometry" />
        </mxCell>
        <mxCell id="uP6PbB_eLCcG2kmAAAx3-7" value="Well Informed" style="rounded=0;whiteSpace=wrap;html=1;shadow=0;glass=0;comic=0;fontSize=12;align=center;recursiveResize=0;container=1;collapsible=0;overflow=fill;fillColor=#f5f5f5;strokeColor=#000000;fontColor=#000000;" vertex="1" parent="SS3VGFc2r9QsdcYSXJZ9-1">
          <mxGeometry x="120" y="450" width="80" height="30" as="geometry" />
        </mxCell>
        <mxCell id="uP6PbB_eLCcG2kmAAAx3-8" value="Standards Compliance" style="rounded=0;whiteSpace=wrap;html=1;shadow=0;glass=0;comic=0;fontSize=12;align=center;recursiveResize=0;container=1;collapsible=0;overflow=fill;fillColor=#f5f5f5;strokeColor=#000000;fontColor=#000000;" vertex="1" parent="SS3VGFc2r9QsdcYSXJZ9-1">
          <mxGeometry x="120" y="490" width="80" height="30" as="geometry" />
        </mxCell>
        <mxCell id="uP6PbB_eLCcG2kmAAAx3-9" value="International First" style="rounded=0;whiteSpace=wrap;html=1;shadow=0;glass=0;comic=0;fontSize=12;align=center;recursiveResize=0;container=1;collapsible=0;overflow=fill;fillColor=#f5f5f5;strokeColor=#000000;fontColor=#000000;" vertex="1" parent="SS3VGFc2r9QsdcYSXJZ9-1">
          <mxGeometry x="120" y="530" width="80" height="30" as="geometry" />
        </mxCell>
        <mxCell id="uP6PbB_eLCcG2kmAAAx3-10" value="&lt;p style=&quot;line-height: 100%&quot;&gt;Place the needs of users at the heart of standards choices. Selecting a standard should not impose unreasonable costs on individuals, organisations and agencies.&lt;/p&gt;" style="text;html=1;strokeColor=none;fillColor=none;align=left;verticalAlign=middle;whiteSpace=wrap;rounded=0;fontFamily=Helvetica;fontSize=12;gradientColor=none;recursiveResize=0;" vertex="1" parent="SS3VGFc2r9QsdcYSXJZ9-1">
          <mxGeometry x="240" y="253" width="440" height="27" as="geometry" />
        </mxCell>
        <mxCell id="uP6PbB_eLCcG2kmAAAx3-11" value="&lt;p style=&quot;line-height: 100%&quot;&gt;Adopted standards should be openly published, developed in a transparent way, freely available, have an acceptable level of use, and be regularly maintained.&lt;/p&gt;" style="text;html=1;strokeColor=none;fillColor=none;align=left;verticalAlign=middle;whiteSpace=wrap;rounded=0;fontFamily=Helvetica;fontSize=12;gradientColor=none;" vertex="1" parent="SS3VGFc2r9QsdcYSXJZ9-1">
          <mxGeometry x="240" y="290" width="440" height="20" as="geometry" />
        </mxCell>
        <mxCell id="uP6PbB_eLCcG2kmAAAx3-12" value="&lt;p style=&quot;line-height: 100%&quot;&gt;Make standards choices that support flexibility and change. Standards should enable services to be implemented by a broad range of suppliers.&lt;/p&gt;" style="text;html=1;strokeColor=none;fillColor=none;align=left;verticalAlign=middle;whiteSpace=wrap;rounded=0;fontFamily=Helvetica;fontSize=12;gradientColor=none;" vertex="1" parent="SS3VGFc2r9QsdcYSXJZ9-1">
          <mxGeometry x="240" y="330" width="440" height="30" as="geometry" />
        </mxCell>
        <mxCell id="uP6PbB_eLCcG2kmAAAx3-13" value="&lt;p style=&quot;line-height: 100%&quot;&gt;&lt;font style=&quot;font-size: 11px&quot;&gt;Select standards that enable suppliers to compete on a level playing field, with no unintentional lock in and potentially allow for large work programmes/contracts to be broken down into smaller components.&lt;/font&gt;&lt;/p&gt;" style="text;html=1;strokeColor=none;fillColor=none;align=left;verticalAlign=middle;whiteSpace=wrap;rounded=0;fontFamily=Helvetica;fontSize=12;gradientColor=none;" vertex="1" parent="SS3VGFc2r9QsdcYSXJZ9-1">
          <mxGeometry x="240" y="370" width="440" height="40" as="geometry" />
        </mxCell>
        <mxCell id="uP6PbB_eLCcG2kmAAAx3-14" value="&lt;p style=&quot;line-height: 100%&quot;&gt;Adopt standards that support sustainable cost. Increased standardisation enables sharing and reuse of IT solutions and components across government. Value for money is achieved through avoiding lock-in and increased reuse.&lt;/p&gt;" style="text;html=1;strokeColor=none;fillColor=none;align=left;verticalAlign=middle;whiteSpace=wrap;rounded=0;fontFamily=Helvetica;fontSize=12;gradientColor=none;" vertex="1" parent="SS3VGFc2r9QsdcYSXJZ9-1">
          <mxGeometry x="240" y="410" width="440" height="40" as="geometry" />
        </mxCell>
        <mxCell id="uP6PbB_eLCcG2kmAAAx3-16" value="&lt;p style=&quot;line-height: 100%&quot;&gt;Select standards as a result of well informed decision making.&lt;/p&gt;" style="text;html=1;strokeColor=none;fillColor=none;align=left;verticalAlign=middle;whiteSpace=wrap;rounded=0;fontFamily=Helvetica;fontSize=12;gradientColor=none;" vertex="1" parent="SS3VGFc2r9QsdcYSXJZ9-1">
          <mxGeometry x="240" y="450" width="440" height="30" as="geometry" />
        </mxCell>
        <mxCell id="uP6PbB_eLCcG2kmAAAx3-17" value="&lt;p style=&quot;line-height: 100%&quot;&gt;&lt;font style=&quot;font-size: 11px&quot;&gt;Standards compliance is consistently applied. Agencies are obliged to responsibly self-regulate standards compliance. Where policy demands, an agency or a supplier must comply with a standard and provide evidence to verify or certify compliance.&lt;/font&gt;&lt;/p&gt;" style="text;html=1;strokeColor=none;fillColor=none;align=left;verticalAlign=middle;whiteSpace=wrap;rounded=0;fontFamily=Helvetica;fontSize=12;gradientColor=none;" vertex="1" parent="SS3VGFc2r9QsdcYSXJZ9-1">
          <mxGeometry x="240" y="485" width="440" height="35" as="geometry" />
        </mxCell>
        <mxCell id="uP6PbB_eLCcG2kmAAAx3-18" value="&lt;p style=&quot;line-height: 100%&quot;&gt;Adopting intl standards should be first.If one is not suitable, consider a NZ profile of an intl standard, rather than developing local NZ or NZ government standards.&lt;/p&gt;" style="text;html=1;strokeColor=none;fillColor=none;align=left;verticalAlign=middle;whiteSpace=wrap;rounded=0;fontFamily=Helvetica;fontSize=12;gradientColor=none;" vertex="1" parent="SS3VGFc2r9QsdcYSXJZ9-1">
          <mxGeometry x="240" y="530" width="440" height="40" as="geometry" />
        </mxCell>
        <mxCell id="2pSf7Q7Bh2teC6L5hrAS-0" value="Source:&lt;br&gt;&lt;a href=&quot;https://www.digital.govt.nz/standards-and-guidance/technology-and-architecture/government-enterprise-architecture/government-digital-standards-catalogue/digital-standards-principles/&quot;&gt;https://www.digital.govt.nz/standards-and-guidance/technology-and-architecture/government-enterprise-architecture/government-digital-standards-catalogue/digital-standards-principles/&lt;/a&gt;" style="shape=note;whiteSpace=wrap;html=1;size=14;verticalAlign=top;align=left;spacingTop=-6;" vertex="1" parent="SS3VGFc2r9QsdcYSXJZ9-1">
          <mxGeometry x="320" y="180" width="360" height="60" as="geometry" />
        </mxCell>
        <mxCell id="zwicZmFc_BBR-h58xZ7R-0" value="Title/Diagram" parent="SS3VGFc2r9QsdcYSXJZ9-0" />
        <mxCell id="zwicZmFc_BBR-h58xZ7R-4" value="&lt;font style=&quot;font-size: 12px&quot;&gt;&lt;span style=&quot;font-size: 12px&quot;&gt;Diagram: System Context -&amp;nbsp;&lt;/span&gt;Constraints - Agreements - Principles - &lt;br style=&quot;font-size: 12px&quot;&gt;NZ Specific -&amp;nbsp;Digital Standards&lt;/font&gt;/Principles" style="text;strokeColor=none;fillColor=none;html=1;fontSize=12;fontStyle=2;verticalAlign=middle;align=left;shadow=0;glass=0;comic=0;opacity=30;fontColor=#808080;" vertex="1" parent="zwicZmFc_BBR-h58xZ7R-0">
          <mxGeometry x="120" y="570" width="520" height="40" as="geometry" />
        </mxCell>
      </root>
    </mxGraphModel>
  </diagram>
</mxfile>
